<?xml version="1.0" encoding="UTF-8" standalone="no"?>
<!-- Created with Inkscape (http://www.inkscape.org/) -->

<svg
   version="1.1"
   id="svg2"
   width="614.39996"
   height="460.80002"
   viewBox="0 0 614.39996 460.80002"
   xmlns="http://www.w3.org/2000/svg"
   xmlns:svg="http://www.w3.org/2000/svg">
  <defs
     id="defs6">
    <clipPath
       clipPathUnits="userSpaceOnUse"
       id="clipPath82">
      <path
         d="M 57.602,41.473 H 414.719 V 307.586 H 57.602 Z"
         id="path80" />
    </clipPath>
    <clipPath
       clipPathUnits="userSpaceOnUse"
       id="clipPath92">
      <path
         d="M 0,0 H 461 V 346 H 0 Z"
         id="path90" />
    </clipPath>
    <clipPath
       clipPathUnits="userSpaceOnUse"
       id="clipPath108">
      <path
         d="M 57.602,41.473 H 414.719 V 307.586 H 57.602 Z"
         id="path106" />
    </clipPath>
    <clipPath
       clipPathUnits="userSpaceOnUse"
       id="clipPath118">
      <path
         d="M 0,0 H 461 V 346 H 0 Z"
         id="path116" />
    </clipPath>
    <clipPath
       clipPathUnits="userSpaceOnUse"
       id="clipPath134">
      <path
         d="M 57.602,41.473 H 414.719 V 307.586 H 57.602 Z"
         id="path132" />
    </clipPath>
    <clipPath
       clipPathUnits="userSpaceOnUse"
       id="clipPath144">
      <path
         d="M 0,0 H 461 V 346 H 0 Z"
         id="path142" />
    </clipPath>
    <clipPath
       clipPathUnits="userSpaceOnUse"
       id="clipPath160">
      <path
         d="M 57.602,41.473 H 414.719 V 307.586 H 57.602 Z"
         id="path158" />
    </clipPath>
    <clipPath
       clipPathUnits="userSpaceOnUse"
       id="clipPath170">
      <path
         d="M 0,0 H 461 V 346 H 0 Z"
         id="path168" />
    </clipPath>
    <clipPath
       clipPathUnits="userSpaceOnUse"
       id="clipPath186">
      <path
         d="M 57.602,41.473 H 414.719 V 307.586 H 57.602 Z"
         id="path184" />
    </clipPath>
    <clipPath
       clipPathUnits="userSpaceOnUse"
       id="clipPath196">
      <path
         d="M 0,0 H 461 V 346 H 0 Z"
         id="path194" />
    </clipPath>
    <clipPath
       clipPathUnits="userSpaceOnUse"
       id="clipPath212">
      <path
         d="M 57.602,41.473 H 414.719 V 307.586 H 57.602 Z"
         id="path210" />
    </clipPath>
    <clipPath
       clipPathUnits="userSpaceOnUse"
       id="clipPath222">
      <path
         d="M 0,0 H 461 V 346 H 0 Z"
         id="path220" />
    </clipPath>
    <clipPath
       clipPathUnits="userSpaceOnUse"
       id="clipPath238">
      <path
         d="M 57.602,41.473 H 414.719 V 307.586 H 57.602 Z"
         id="path236" />
    </clipPath>
    <clipPath
       clipPathUnits="userSpaceOnUse"
       id="clipPath248">
      <path
         d="M 0,0 H 461 V 346 H 0 Z"
         id="path246" />
    </clipPath>
    <clipPath
       clipPathUnits="userSpaceOnUse"
       id="clipPath292">
      <path
         d="M 57.602,41.473 H 414.719 V 307.586 H 57.602 Z"
         id="path290" />
    </clipPath>
    <clipPath
       clipPathUnits="userSpaceOnUse"
       id="clipPath302">
      <path
         d="M 0,0 H 461 V 346 H 0 Z"
         id="path300" />
    </clipPath>
    <clipPath
       clipPathUnits="userSpaceOnUse"
       id="clipPath316">
      <path
         d="M 0,0 H 461 V 346 H 0 Z"
         id="path314" />
    </clipPath>
    <clipPath
       clipPathUnits="userSpaceOnUse"
       id="clipPath330">
      <path
         d="M 0,0 H 461 V 346 H 0 Z"
         id="path328" />
    </clipPath>
    <clipPath
       clipPathUnits="userSpaceOnUse"
       id="clipPath344">
      <path
         d="M 0,0 H 461 V 346 H 0 Z"
         id="path342" />
    </clipPath>
  </defs>
  <g
     id="g8"
     transform="matrix(1.3333333,0,0,1.3333333,0,1.352e-5)">
    <g
       id="g10">
      <path
         d="M 0,0 H 460.801 V 345.602 H 0 Z"
         style="fill:#ffffff;fill-opacity:1;fill-rule:nonzero;stroke:none"
         id="path12" />
      <path
         d="M 57.602,41.473 H 414.719 V 307.586 H 57.602 Z"
         style="fill:#eaeaf2;fill-opacity:1;fill-rule:nonzero;stroke:none"
         id="path14" />
      <path
         d="m 114.867,315.863 -1.336,3.629 h 2.68 z m -0.555,-0.972 h 1.118 l 2.777,7.293 h -1.023 l -0.664,-1.872 h -3.286 l -0.664,1.872 h -1.043 z"
         style="fill:#262626;fill-opacity:1;fill-rule:nonzero;stroke:none"
         id="path16" />
      <path
         d="m 123.16,319.453 c 0,-0.66 -0.137,-1.18 -0.406,-1.555 -0.274,-0.375 -0.649,-0.562 -1.121,-0.562 -0.477,0 -0.852,0.187 -1.121,0.562 -0.274,0.375 -0.41,0.895 -0.41,1.555 0,0.66 0.136,1.18 0.41,1.555 0.269,0.375 0.644,0.562 1.121,0.562 0.472,0 0.847,-0.187 1.121,-0.562 0.269,-0.375 0.406,-0.895 0.406,-1.555 z m -3.058,-1.91 c 0.191,-0.324 0.429,-0.566 0.714,-0.723 0.289,-0.16 0.633,-0.238 1.036,-0.238 0.664,0 1.203,0.266 1.617,0.793 0.418,0.523 0.625,1.219 0.625,2.078 0,0.859 -0.207,1.555 -0.625,2.082 -0.414,0.527 -0.953,0.789 -1.617,0.789 -0.403,0 -0.747,-0.078 -1.036,-0.238 -0.285,-0.156 -0.523,-0.398 -0.714,-0.723 v 0.821 h -0.903 v -7.598 h 0.903 z"
         style="fill:#262626;fill-opacity:1;fill-rule:nonzero;stroke:none"
         id="path18" />
      <path
         d="m 129.066,316.875 v 0.852 c -0.254,-0.133 -0.515,-0.231 -0.789,-0.293 -0.273,-0.067 -0.558,-0.098 -0.851,-0.098 -0.446,0 -0.781,0.066 -1.004,0.203 -0.223,0.137 -0.332,0.34 -0.332,0.617 0,0.207 0.078,0.371 0.238,0.489 0.16,0.121 0.481,0.23 0.961,0.339 l 0.309,0.071 c 0.636,0.133 1.09,0.328 1.359,0.578 0.27,0.246 0.402,0.594 0.402,1.039 0,0.508 -0.199,0.914 -0.601,1.211 -0.403,0.293 -0.953,0.441 -1.656,0.441 -0.293,0 -0.602,-0.027 -0.918,-0.086 -0.317,-0.058 -0.653,-0.14 -1.004,-0.254 v -0.929 c 0.332,0.172 0.66,0.3 0.984,0.39 0.32,0.082 0.641,0.125 0.957,0.125 0.422,0 0.746,-0.07 0.973,-0.215 0.23,-0.144 0.344,-0.351 0.344,-0.613 0,-0.242 -0.083,-0.43 -0.247,-0.562 -0.164,-0.129 -0.523,-0.254 -1.082,-0.375 l -0.312,-0.075 c -0.555,-0.117 -0.957,-0.296 -1.207,-0.539 -0.246,-0.242 -0.371,-0.574 -0.371,-0.996 0,-0.515 0.183,-0.914 0.547,-1.191 0.367,-0.281 0.882,-0.422 1.554,-0.422 0.332,0 0.645,0.023 0.938,0.074 0.293,0.047 0.562,0.121 0.808,0.219 z"
         style="fill:#262626;fill-opacity:1;fill-rule:nonzero;stroke:none"
         id="path20" />
      <path
         d="m 131.68,315.16 v 1.555 h 1.851 v 0.699 h -1.851 v 2.969 c 0,0.445 0.062,0.73 0.183,0.859 0.121,0.125 0.371,0.188 0.746,0.188 h 0.922 v 0.754 h -0.922 c -0.695,0 -1.171,-0.129 -1.437,-0.387 -0.262,-0.262 -0.395,-0.735 -0.395,-1.414 v -2.969 h -0.66 v -0.699 h 0.66 v -1.555 z"
         style="fill:#262626;fill-opacity:1;fill-rule:nonzero;stroke:none"
         id="path22" />
      <path
         d="m 137.879,317.555 c -0.098,-0.059 -0.211,-0.102 -0.328,-0.129 -0.117,-0.028 -0.25,-0.043 -0.391,-0.043 -0.512,0 -0.898,0.164 -1.172,0.496 -0.273,0.328 -0.406,0.805 -0.406,1.422 v 2.883 h -0.906 v -5.469 h 0.906 v 0.847 c 0.188,-0.332 0.434,-0.578 0.734,-0.738 0.305,-0.16 0.672,-0.242 1.106,-0.242 0.062,0 0.129,0.004 0.207,0.012 0.074,0.008 0.156,0.019 0.246,0.039 z"
         style="fill:#262626;fill-opacity:1;fill-rule:nonzero;stroke:none"
         id="path24" />
      <path
         d="m 141.309,319.434 c -0.727,0 -1.231,0.082 -1.508,0.25 -0.281,0.164 -0.422,0.449 -0.422,0.847 0,0.321 0.105,0.574 0.316,0.762 0.211,0.184 0.496,0.277 0.856,0.277 0.5,0 0.898,-0.175 1.199,-0.527 0.301,-0.355 0.453,-0.824 0.453,-1.41 v -0.199 z m 1.793,-0.372 v 3.122 h -0.899 v -0.832 c -0.207,0.332 -0.461,0.578 -0.765,0.734 -0.309,0.16 -0.684,0.238 -1.126,0.238 -0.558,0 -1.003,-0.156 -1.335,-0.472 -0.332,-0.313 -0.497,-0.735 -0.497,-1.262 0,-0.613 0.208,-1.078 0.618,-1.391 0.414,-0.312 1.027,-0.469 1.843,-0.469 h 1.262 v -0.089 c 0,-0.414 -0.137,-0.731 -0.406,-0.957 -0.274,-0.227 -0.656,-0.34 -1.149,-0.34 -0.312,0 -0.617,0.039 -0.914,0.113 -0.293,0.074 -0.578,0.188 -0.851,0.336 v -0.832 c 0.328,-0.125 0.648,-0.219 0.957,-0.281 0.308,-0.067 0.609,-0.098 0.902,-0.098 0.793,0 1.383,0.207 1.774,0.617 0.39,0.41 0.586,1.031 0.586,1.863 z"
         style="fill:#262626;fill-opacity:1;fill-rule:nonzero;stroke:none"
         id="path26" />
      <path
         d="m 148.887,316.922 v 0.844 c -0.254,-0.141 -0.508,-0.246 -0.766,-0.317 -0.254,-0.07 -0.512,-0.105 -0.773,-0.105 -0.582,0 -1.036,0.183 -1.36,0.554 -0.32,0.368 -0.48,0.887 -0.48,1.555 0,0.668 0.16,1.188 0.48,1.555 0.324,0.371 0.778,0.554 1.36,0.554 0.261,0 0.519,-0.035 0.773,-0.105 0.258,-0.07 0.512,-0.176 0.766,-0.316 v 0.832 c -0.25,0.117 -0.512,0.203 -0.782,0.261 -0.265,0.063 -0.55,0.09 -0.855,0.09 -0.824,0 -1.477,-0.258 -1.965,-0.777 -0.484,-0.516 -0.726,-1.215 -0.726,-2.094 0,-0.891 0.246,-1.594 0.734,-2.101 0.492,-0.512 1.164,-0.77 2.016,-0.77 0.277,0 0.546,0.027 0.812,0.086 0.262,0.059 0.52,0.141 0.766,0.254 z"
         style="fill:#262626;fill-opacity:1;fill-rule:nonzero;stroke:none"
         id="path28" />
      <path
         d="m 151.34,315.16 v 1.555 h 1.848 v 0.699 h -1.848 v 2.969 c 0,0.445 0.058,0.73 0.18,0.859 0.125,0.125 0.371,0.188 0.746,0.188 h 0.922 v 0.754 h -0.922 c -0.692,0 -1.172,-0.129 -1.434,-0.387 -0.266,-0.262 -0.398,-0.735 -0.398,-1.414 v -2.969 h -0.657 v -0.699 h 0.657 v -1.555 z"
         style="fill:#262626;fill-opacity:1;fill-rule:nonzero;stroke:none"
         id="path30" />
      <path
         d="m 155.395,318.703 v 2.668 h 1.582 c 0.531,0 0.925,-0.109 1.179,-0.328 0.258,-0.223 0.383,-0.559 0.383,-1.008 0,-0.457 -0.125,-0.793 -0.383,-1.008 -0.254,-0.218 -0.648,-0.324 -1.179,-0.324 z m 0,-3 v 2.195 h 1.46 c 0.481,0 0.84,-0.089 1.075,-0.269 0.238,-0.18 0.355,-0.457 0.355,-0.828 0,-0.367 -0.117,-0.641 -0.355,-0.824 -0.235,-0.184 -0.594,-0.274 -1.075,-0.274 z m -0.985,-0.812 h 2.52 c 0.75,0 1.332,0.156 1.738,0.468 0.406,0.313 0.609,0.758 0.609,1.336 0,0.446 -0.105,0.801 -0.312,1.063 -0.207,0.265 -0.516,0.43 -0.918,0.492 0.484,0.105 0.863,0.324 1.133,0.656 0.265,0.328 0.402,0.742 0.402,1.235 0,0.652 -0.223,1.156 -0.664,1.511 -0.445,0.352 -1.074,0.532 -1.891,0.532 h -2.617 z"
         style="fill:#262626;fill-opacity:1;fill-rule:nonzero;stroke:none"
         id="path32" />
      <path
         d="m 165.91,319.223 v 0.441 h -4.133 c 0.039,0.617 0.227,1.09 0.559,1.414 0.336,0.32 0.797,0.484 1.394,0.484 0.344,0 0.68,-0.042 1.004,-0.124 0.325,-0.086 0.645,-0.215 0.965,-0.383 v 0.851 c -0.324,0.133 -0.652,0.239 -0.992,0.313 -0.34,0.07 -0.684,0.105 -1.031,0.105 -0.871,0 -1.563,-0.254 -2.071,-0.762 -0.511,-0.507 -0.765,-1.195 -0.765,-2.062 0,-0.895 0.242,-1.602 0.726,-2.129 0.481,-0.527 1.133,-0.789 1.954,-0.789 0.738,0 1.32,0.238 1.746,0.711 0.429,0.473 0.644,1.117 0.644,1.93 z m -0.898,-0.262 c -0.008,-0.492 -0.145,-0.883 -0.414,-1.176 -0.27,-0.293 -0.625,-0.441 -1.067,-0.441 -0.5,0 -0.902,0.14 -1.203,0.426 -0.301,0.281 -0.476,0.679 -0.519,1.195 z"
         style="fill:#262626;fill-opacity:1;fill-rule:nonzero;stroke:none"
         id="path34" />
      <path
         d="m 169.867,319.434 c -0.722,0 -1.226,0.082 -1.508,0.25 -0.281,0.164 -0.421,0.449 -0.421,0.847 0,0.321 0.105,0.574 0.316,0.762 0.211,0.184 0.496,0.277 0.855,0.277 0.5,0 0.903,-0.175 1.203,-0.527 0.301,-0.355 0.45,-0.824 0.45,-1.41 v -0.199 z m 1.793,-0.372 v 3.122 h -0.898 v -0.832 c -0.203,0.332 -0.461,0.578 -0.766,0.734 -0.308,0.16 -0.68,0.238 -1.125,0.238 -0.559,0 -1.004,-0.156 -1.336,-0.472 -0.328,-0.313 -0.496,-0.735 -0.496,-1.262 0,-0.613 0.207,-1.078 0.617,-1.391 0.414,-0.312 1.028,-0.469 1.844,-0.469 h 1.262 v -0.089 c 0,-0.414 -0.137,-0.731 -0.407,-0.957 -0.273,-0.227 -0.656,-0.34 -1.144,-0.34 -0.313,0 -0.617,0.039 -0.914,0.113 -0.297,0.074 -0.582,0.188 -0.856,0.336 v -0.832 c 0.329,-0.125 0.649,-0.219 0.957,-0.281 0.309,-0.067 0.61,-0.098 0.903,-0.098 0.793,0 1.383,0.207 1.773,0.617 0.391,0.41 0.586,1.031 0.586,1.863 z"
         style="fill:#262626;fill-opacity:1;fill-rule:nonzero;stroke:none"
         id="path36" />
      <path
         d="m 177.77,317.766 c 0.222,-0.407 0.492,-0.704 0.804,-0.895 0.313,-0.191 0.68,-0.289 1.106,-0.289 0.566,0 1.008,0.199 1.316,0.598 0.309,0.398 0.465,0.965 0.465,1.703 v 3.301 h -0.902 v -3.274 c 0,-0.523 -0.094,-0.91 -0.282,-1.164 -0.183,-0.254 -0.468,-0.383 -0.847,-0.383 -0.465,0 -0.836,0.157 -1.106,0.465 -0.269,0.309 -0.402,0.731 -0.402,1.266 v 3.09 h -0.906 v -3.274 c 0,-0.527 -0.09,-0.918 -0.278,-1.168 -0.183,-0.254 -0.472,-0.379 -0.859,-0.379 -0.457,0 -0.824,0.157 -1.094,0.465 -0.269,0.313 -0.406,0.734 -0.406,1.266 v 3.09 h -0.902 v -5.469 h 0.902 v 0.847 c 0.207,-0.335 0.453,-0.582 0.738,-0.742 0.285,-0.156 0.625,-0.238 1.02,-0.238 0.398,0 0.738,0.102 1.015,0.305 0.278,0.199 0.485,0.492 0.618,0.879 z"
         style="fill:#262626;fill-opacity:1;fill-rule:nonzero;stroke:none"
         id="path38" />
      <path
         d="m 291.848,314.891 h 0.984 v 6.461 h 3.551 v 0.832 h -4.535 z"
         style="fill:#262626;fill-opacity:1;fill-rule:nonzero;stroke:none"
         id="path40" />
      <path
         d="m 299.863,319.434 c -0.722,0 -1.226,0.082 -1.508,0.25 -0.281,0.164 -0.421,0.449 -0.421,0.847 0,0.321 0.105,0.574 0.316,0.762 0.211,0.184 0.496,0.277 0.855,0.277 0.5,0 0.903,-0.175 1.204,-0.527 0.3,-0.355 0.449,-0.824 0.449,-1.41 v -0.199 z m 1.793,-0.372 v 3.122 h -0.898 v -0.832 c -0.203,0.332 -0.461,0.578 -0.766,0.734 -0.308,0.16 -0.68,0.238 -1.125,0.238 -0.558,0 -1.004,-0.156 -1.336,-0.472 -0.328,-0.313 -0.496,-0.735 -0.496,-1.262 0,-0.613 0.207,-1.078 0.617,-1.391 0.414,-0.312 1.028,-0.469 1.844,-0.469 h 1.262 v -0.089 c 0,-0.414 -0.137,-0.731 -0.406,-0.957 -0.274,-0.227 -0.653,-0.34 -1.145,-0.34 -0.312,0 -0.617,0.039 -0.914,0.113 -0.297,0.074 -0.582,0.188 -0.855,0.336 v -0.832 c 0.328,-0.125 0.648,-0.219 0.957,-0.281 0.308,-0.067 0.609,-0.098 0.902,-0.098 0.793,0 1.383,0.207 1.773,0.617 0.391,0.41 0.586,1.031 0.586,1.863 z"
         style="fill:#262626;fill-opacity:1;fill-rule:nonzero;stroke:none"
         id="path42" />
      <path
         d="m 307.766,317.766 c 0.222,-0.407 0.492,-0.704 0.804,-0.895 0.313,-0.191 0.68,-0.289 1.106,-0.289 0.57,0 1.008,0.199 1.316,0.598 0.309,0.398 0.465,0.965 0.465,1.703 v 3.301 h -0.902 v -3.274 c 0,-0.523 -0.094,-0.91 -0.282,-1.164 -0.183,-0.254 -0.468,-0.383 -0.847,-0.383 -0.465,0 -0.832,0.157 -1.106,0.465 -0.269,0.309 -0.402,0.731 -0.402,1.266 v 3.09 h -0.906 v -3.274 c 0,-0.527 -0.09,-0.918 -0.278,-1.168 -0.183,-0.254 -0.472,-0.379 -0.859,-0.379 -0.457,0 -0.824,0.157 -1.094,0.465 -0.269,0.313 -0.406,0.734 -0.406,1.266 v 3.09 h -0.902 v -5.469 h 0.902 v 0.847 c 0.207,-0.335 0.453,-0.582 0.738,-0.742 0.285,-0.156 0.625,-0.238 1.02,-0.238 0.398,0 0.738,0.102 1.015,0.305 0.278,0.199 0.485,0.492 0.618,0.879 z"
         style="fill:#262626;fill-opacity:1;fill-rule:nonzero;stroke:none"
         id="path44" />
      <path
         d="m 317.176,319.453 c 0,-0.66 -0.137,-1.18 -0.41,-1.555 -0.27,-0.375 -0.645,-0.562 -1.118,-0.562 -0.476,0 -0.851,0.187 -1.125,0.562 -0.269,0.375 -0.406,0.895 -0.406,1.555 0,0.66 0.137,1.18 0.406,1.555 0.274,0.375 0.649,0.562 1.125,0.562 0.473,0 0.848,-0.187 1.118,-0.562 0.273,-0.375 0.41,-0.895 0.41,-1.555 z m -3.059,-1.91 c 0.192,-0.324 0.43,-0.566 0.715,-0.723 0.289,-0.16 0.633,-0.238 1.035,-0.238 0.664,0 1.203,0.266 1.617,0.793 0.414,0.523 0.625,1.219 0.625,2.078 0,0.859 -0.211,1.555 -0.625,2.082 -0.414,0.527 -0.953,0.789 -1.617,0.789 -0.402,0 -0.746,-0.078 -1.035,-0.238 -0.285,-0.156 -0.523,-0.398 -0.715,-0.723 v 0.821 h -0.902 v -7.598 h 0.902 z"
         style="fill:#262626;fill-opacity:1;fill-rule:nonzero;stroke:none"
         id="path46" />
      <path
         d="m 323.195,317.543 v -2.957 h 0.899 v 7.598 h -0.899 v -0.821 c -0.187,0.325 -0.429,0.567 -0.715,0.723 -0.289,0.16 -0.636,0.238 -1.039,0.238 -0.66,0 -1.199,-0.262 -1.613,-0.789 -0.414,-0.527 -0.621,-1.223 -0.621,-2.082 0,-0.859 0.207,-1.555 0.621,-2.078 0.414,-0.527 0.953,-0.793 1.613,-0.793 0.403,0 0.75,0.078 1.039,0.238 0.286,0.157 0.528,0.399 0.715,0.723 z m -3.062,1.91 c 0,0.66 0.137,1.18 0.41,1.555 0.269,0.375 0.645,0.562 1.117,0.562 0.477,0 0.852,-0.187 1.125,-0.562 0.274,-0.375 0.41,-0.895 0.41,-1.555 0,-0.66 -0.136,-1.18 -0.41,-1.555 -0.273,-0.375 -0.648,-0.562 -1.125,-0.562 -0.472,0 -0.848,0.187 -1.117,0.562 -0.273,0.375 -0.41,0.895 -0.41,1.555 z"
         style="fill:#262626;fill-opacity:1;fill-rule:nonzero;stroke:none"
         id="path48" />
      <path
         d="m 328.43,319.434 c -0.727,0 -1.231,0.082 -1.508,0.25 -0.281,0.164 -0.422,0.449 -0.422,0.847 0,0.321 0.105,0.574 0.316,0.762 0.211,0.184 0.496,0.277 0.856,0.277 0.5,0 0.898,-0.175 1.199,-0.527 0.301,-0.355 0.453,-0.824 0.453,-1.41 v -0.199 z m 1.793,-0.372 v 3.122 h -0.899 v -0.832 c -0.207,0.332 -0.461,0.578 -0.769,0.734 -0.305,0.16 -0.68,0.238 -1.121,0.238 -0.559,0 -1.004,-0.156 -1.336,-0.472 -0.332,-0.313 -0.496,-0.735 -0.496,-1.262 0,-0.613 0.207,-1.078 0.617,-1.391 0.414,-0.312 1.027,-0.469 1.843,-0.469 h 1.262 v -0.089 c 0,-0.414 -0.136,-0.731 -0.41,-0.957 -0.269,-0.227 -0.652,-0.34 -1.144,-0.34 -0.313,0 -0.618,0.039 -0.915,0.113 -0.296,0.074 -0.578,0.188 -0.851,0.336 v -0.832 c 0.328,-0.125 0.644,-0.219 0.957,-0.281 0.309,-0.067 0.609,-0.098 0.902,-0.098 0.789,0 1.383,0.207 1.774,0.617 0.39,0.41 0.586,1.031 0.586,1.863 z"
         style="fill:#262626;fill-opacity:1;fill-rule:nonzero;stroke:none"
         id="path50" />
      <path
         d="m 333.098,318.703 v 2.668 h 1.582 c 0.531,0 0.922,-0.109 1.179,-0.328 0.254,-0.223 0.383,-0.559 0.383,-1.008 0,-0.457 -0.129,-0.793 -0.383,-1.008 -0.257,-0.218 -0.648,-0.324 -1.179,-0.324 z m 0,-3 v 2.195 h 1.461 c 0.48,0 0.839,-0.089 1.074,-0.269 0.234,-0.18 0.355,-0.457 0.355,-0.828 0,-0.367 -0.121,-0.641 -0.355,-0.824 -0.235,-0.184 -0.594,-0.274 -1.074,-0.274 z m -0.989,-0.812 h 2.524 c 0.75,0 1.328,0.156 1.734,0.468 0.41,0.313 0.613,0.758 0.613,1.336 0,0.446 -0.105,0.801 -0.312,1.063 -0.211,0.265 -0.516,0.43 -0.918,0.492 0.484,0.105 0.859,0.324 1.129,0.656 0.269,0.328 0.402,0.742 0.402,1.235 0,0.652 -0.219,1.156 -0.664,1.511 -0.441,0.352 -1.07,0.532 -1.89,0.532 h -2.618 z"
         style="fill:#262626;fill-opacity:1;fill-rule:nonzero;stroke:none"
         id="path52" />
      <path
         d="m 343.609,319.223 v 0.441 h -4.129 c 0.04,0.617 0.223,1.09 0.559,1.414 0.332,0.32 0.797,0.484 1.395,0.484 0.343,0 0.675,-0.042 1,-0.124 0.324,-0.086 0.648,-0.215 0.968,-0.383 v 0.851 c -0.324,0.133 -0.656,0.239 -0.992,0.313 -0.34,0.07 -0.683,0.105 -1.031,0.105 -0.871,0 -1.563,-0.254 -2.074,-0.762 -0.508,-0.507 -0.762,-1.195 -0.762,-2.062 0,-0.895 0.238,-1.602 0.723,-2.129 0.484,-0.527 1.136,-0.789 1.957,-0.789 0.734,0 1.316,0.238 1.746,0.711 0.426,0.473 0.64,1.117 0.64,1.93 z m -0.898,-0.262 c -0.004,-0.492 -0.145,-0.883 -0.41,-1.176 -0.27,-0.293 -0.625,-0.441 -1.071,-0.441 -0.5,0 -0.902,0.14 -1.203,0.426 -0.3,0.281 -0.472,0.679 -0.519,1.195 z"
         style="fill:#262626;fill-opacity:1;fill-rule:nonzero;stroke:none"
         id="path54" />
      <path
         d="m 347.57,319.434 c -0.726,0 -1.23,0.082 -1.508,0.25 -0.281,0.164 -0.421,0.449 -0.421,0.847 0,0.321 0.105,0.574 0.316,0.762 0.211,0.184 0.496,0.277 0.855,0.277 0.5,0 0.899,-0.175 1.2,-0.527 0.3,-0.355 0.453,-0.824 0.453,-1.41 v -0.199 z m 1.793,-0.372 v 3.122 h -0.898 v -0.832 c -0.207,0.332 -0.461,0.578 -0.77,0.734 -0.304,0.16 -0.679,0.238 -1.121,0.238 -0.558,0 -1.004,-0.156 -1.336,-0.472 -0.332,-0.313 -0.496,-0.735 -0.496,-1.262 0,-0.613 0.207,-1.078 0.617,-1.391 0.414,-0.312 1.028,-0.469 1.844,-0.469 h 1.262 v -0.089 c 0,-0.414 -0.137,-0.731 -0.41,-0.957 -0.27,-0.227 -0.653,-0.34 -1.145,-0.34 -0.312,0 -0.617,0.039 -0.914,0.113 -0.297,0.074 -0.578,0.188 -0.851,0.336 v -0.832 c 0.328,-0.125 0.644,-0.219 0.957,-0.281 0.308,-0.067 0.609,-0.098 0.902,-0.098 0.789,0 1.383,0.207 1.773,0.617 0.391,0.41 0.586,1.031 0.586,1.863 z"
         style="fill:#262626;fill-opacity:1;fill-rule:nonzero;stroke:none"
         id="path56" />
      <path
         d="m 355.469,317.766 c 0.226,-0.407 0.496,-0.704 0.808,-0.895 0.313,-0.191 0.68,-0.289 1.102,-0.289 0.57,0 1.012,0.199 1.32,0.598 0.309,0.398 0.465,0.965 0.465,1.703 v 3.301 h -0.906 v -3.274 c 0,-0.523 -0.094,-0.91 -0.278,-1.164 -0.187,-0.254 -0.468,-0.383 -0.847,-0.383 -0.469,0 -0.836,0.157 -1.106,0.465 -0.269,0.309 -0.406,0.731 -0.406,1.266 v 3.09 h -0.902 v -3.274 c 0,-0.527 -0.094,-0.918 -0.278,-1.168 -0.187,-0.254 -0.472,-0.379 -0.859,-0.379 -0.461,0 -0.824,0.157 -1.098,0.465 -0.269,0.313 -0.402,0.734 -0.402,1.266 v 3.09 h -0.902 v -5.469 h 0.902 v 0.847 c 0.203,-0.335 0.449,-0.582 0.738,-0.742 0.285,-0.156 0.625,-0.238 1.02,-0.238 0.398,0 0.734,0.102 1.012,0.305 0.281,0.199 0.484,0.492 0.617,0.879 z"
         style="fill:#262626;fill-opacity:1;fill-rule:nonzero;stroke:none"
         id="path58" />
      <path
         d="m 215.824,329.543 -1.336,3.629 h 2.68 z m -0.554,-0.973 h 1.117 l 2.777,7.289 h -1.023 l -0.664,-1.867 h -3.286 l -0.664,1.867 h -1.043 z"
         style="fill:#262626;fill-opacity:1;fill-rule:nonzero;stroke:none"
         id="path60" />
      <path
         d="m 221.059,335.039 v 2.902 h -0.903 v -7.55 h 0.903 v 0.832 c 0.191,-0.325 0.429,-0.567 0.714,-0.723 0.289,-0.16 0.633,-0.238 1.036,-0.238 0.664,0 1.203,0.261 1.617,0.789 0.414,0.527 0.625,1.222 0.625,2.082 0,0.859 -0.211,1.551 -0.625,2.078 -0.414,0.527 -0.953,0.793 -1.617,0.793 -0.403,0 -0.747,-0.082 -1.036,-0.238 -0.285,-0.161 -0.523,-0.399 -0.714,-0.727 z m 3.058,-1.906 c 0,-0.664 -0.137,-1.18 -0.41,-1.555 -0.269,-0.379 -0.645,-0.566 -1.117,-0.566 -0.477,0 -0.852,0.187 -1.125,0.566 -0.27,0.375 -0.406,0.891 -0.406,1.555 0,0.66 0.136,1.176 0.406,1.555 0.273,0.374 0.648,0.562 1.125,0.562 0.472,0 0.848,-0.188 1.117,-0.562 0.273,-0.379 0.41,-0.895 0.41,-1.555 z"
         style="fill:#262626;fill-opacity:1;fill-rule:nonzero;stroke:none"
         id="path62" />
      <path
         d="m 227.406,335.039 v 2.902 h -0.902 v -7.55 h 0.902 v 0.832 c 0.192,-0.325 0.43,-0.567 0.715,-0.723 0.289,-0.16 0.633,-0.238 1.035,-0.238 0.664,0 1.203,0.261 1.617,0.789 0.415,0.527 0.625,1.222 0.625,2.082 0,0.859 -0.21,1.551 -0.625,2.078 -0.414,0.527 -0.953,0.793 -1.617,0.793 -0.402,0 -0.746,-0.082 -1.035,-0.238 -0.285,-0.161 -0.523,-0.399 -0.715,-0.727 z m 3.059,-1.906 c 0,-0.664 -0.137,-1.18 -0.41,-1.555 -0.27,-0.379 -0.645,-0.566 -1.117,-0.566 -0.477,0 -0.852,0.187 -1.126,0.566 -0.269,0.375 -0.406,0.891 -0.406,1.555 0,0.66 0.137,1.176 0.406,1.555 0.274,0.374 0.649,0.562 1.126,0.562 0.472,0 0.847,-0.188 1.117,-0.562 0.273,-0.379 0.41,-0.895 0.41,-1.555 z"
         style="fill:#262626;fill-opacity:1;fill-rule:nonzero;stroke:none"
         id="path64" />
      <path
         d="m 236.055,331.23 c -0.102,-0.058 -0.211,-0.101 -0.332,-0.128 -0.118,-0.028 -0.246,-0.04 -0.391,-0.04 -0.508,0 -0.898,0.165 -1.172,0.493 -0.269,0.332 -0.406,0.804 -0.406,1.425 v 2.879 h -0.902 v -5.468 h 0.902 v 0.851 c 0.191,-0.332 0.434,-0.578 0.738,-0.738 0.301,-0.164 0.672,-0.242 1.106,-0.242 0.058,0 0.129,0.004 0.203,0.011 0.074,0.008 0.156,0.02 0.25,0.036 z"
         style="fill:#262626;fill-opacity:1;fill-rule:nonzero;stroke:none"
         id="path66" />
      <path
         d="m 238.891,331.023 c -0.481,0 -0.864,0.188 -1.141,0.563 -0.281,0.375 -0.422,0.891 -0.422,1.547 0,0.652 0.141,1.168 0.418,1.543 0.277,0.375 0.66,0.566 1.145,0.566 0.48,0 0.859,-0.191 1.136,-0.566 0.282,-0.379 0.422,-0.895 0.422,-1.543 0,-0.649 -0.14,-1.164 -0.422,-1.543 -0.277,-0.379 -0.656,-0.567 -1.136,-0.567 z m 0,-0.761 c 0.781,0 1.394,0.254 1.839,0.761 0.45,0.508 0.672,1.211 0.672,2.11 0,0.894 -0.222,1.594 -0.672,2.105 -0.445,0.512 -1.058,0.766 -1.839,0.766 -0.786,0 -1.399,-0.254 -1.844,-0.766 -0.445,-0.511 -0.664,-1.211 -0.664,-2.105 0,-0.899 0.219,-1.602 0.664,-2.11 0.445,-0.507 1.058,-0.761 1.844,-0.761 z"
         style="fill:#262626;fill-opacity:1;fill-rule:nonzero;stroke:none"
         id="path68" />
      <path
         d="m 245.375,333.113 c -0.727,0 -1.23,0.082 -1.508,0.246 -0.281,0.168 -0.422,0.45 -0.422,0.852 0,0.32 0.106,0.57 0.317,0.758 0.211,0.187 0.496,0.281 0.855,0.281 0.5,0 0.899,-0.176 1.199,-0.531 0.301,-0.352 0.454,-0.821 0.454,-1.407 v -0.199 z m 1.793,-0.371 v 3.117 h -0.898 v -0.828 c -0.208,0.332 -0.461,0.574 -0.766,0.735 -0.309,0.156 -0.684,0.238 -1.125,0.238 -0.559,0 -1.004,-0.16 -1.336,-0.473 -0.332,-0.316 -0.496,-0.734 -0.496,-1.261 0,-0.618 0.207,-1.079 0.617,-1.391 0.414,-0.313 1.027,-0.469 1.844,-0.469 h 1.262 v -0.09 c 0,-0.414 -0.137,-0.734 -0.407,-0.961 -0.273,-0.226 -0.656,-0.336 -1.148,-0.336 -0.313,0 -0.617,0.036 -0.914,0.11 -0.293,0.078 -0.578,0.187 -0.852,0.34 v -0.832 c 0.328,-0.129 0.649,-0.223 0.957,-0.286 0.309,-0.062 0.61,-0.093 0.903,-0.093 0.793,0 1.382,0.203 1.773,0.613 0.391,0.41 0.586,1.031 0.586,1.867 z"
         style="fill:#262626;fill-opacity:1;fill-rule:nonzero;stroke:none"
         id="path70" />
      <path
         d="m 252.953,330.602 v 0.839 c -0.254,-0.14 -0.508,-0.246 -0.762,-0.316 -0.257,-0.07 -0.515,-0.102 -0.773,-0.102 -0.586,0 -1.039,0.184 -1.359,0.555 -0.325,0.367 -0.485,0.887 -0.485,1.555 0,0.664 0.16,1.183 0.485,1.555 0.32,0.367 0.773,0.554 1.359,0.554 0.258,0 0.516,-0.035 0.773,-0.105 0.254,-0.071 0.508,-0.176 0.762,-0.317 v 0.832 c -0.25,0.118 -0.512,0.203 -0.777,0.262 -0.27,0.059 -0.555,0.09 -0.86,0.09 -0.824,0 -1.476,-0.262 -1.961,-0.777 -0.484,-0.52 -0.726,-1.215 -0.726,-2.094 0,-0.895 0.242,-1.594 0.734,-2.106 0.489,-0.511 1.16,-0.765 2.016,-0.765 0.273,0 0.543,0.027 0.809,0.086 0.261,0.054 0.519,0.14 0.765,0.254 z"
         style="fill:#262626;fill-opacity:1;fill-rule:nonzero;stroke:none"
         id="path72" />
      <path
         d="m 259.062,332.559 v 3.3 h -0.898 v -3.269 c 0,-0.52 -0.102,-0.906 -0.305,-1.16 -0.199,-0.258 -0.504,-0.387 -0.906,-0.387 -0.484,0 -0.867,0.152 -1.148,0.465 -0.282,0.304 -0.422,0.726 -0.422,1.262 v 3.089 h -0.903 v -7.597 h 0.903 v 2.98 c 0.219,-0.328 0.469,-0.574 0.762,-0.738 0.289,-0.16 0.628,-0.242 1.007,-0.242 0.629,0 1.106,0.191 1.426,0.582 0.324,0.386 0.484,0.961 0.484,1.715 z"
         style="fill:#262626;fill-opacity:1;fill-rule:nonzero;stroke:none"
         id="path74" />
    </g>
    <g
       id="g76">
      <g
         id="g78"
         clip-path="url(#clipPath82)">
        <g
           id="g84">
          <g
             id="g86">
            <g
               id="g88"
               clip-path="url(#clipPath92)">
              <g
                 id="g94">
                <path
                   d="M 57.602,307.586 H 414.719"
                   style="fill:none;stroke:#ffffff;stroke-width:0.8;stroke-linecap:round;stroke-linejoin:round;stroke-miterlimit:4;stroke-dasharray:none;stroke-opacity:1"
                   id="path96" />
              </g>
            </g>
          </g>
        </g>
      </g>
    </g>
    <g
       id="g98">
      <path
         d="m 47.414,304.742 c -0.504,0 -0.887,0.25 -1.144,0.75 -0.254,0.5 -0.383,1.25 -0.383,2.254 0,1 0.129,1.75 0.383,2.25 0.257,0.5 0.64,0.75 1.144,0.75 0.512,0 0.895,-0.25 1.152,-0.75 0.254,-0.5 0.383,-1.25 0.383,-2.25 0,-1.004 -0.129,-1.754 -0.383,-2.254 -0.257,-0.5 -0.64,-0.75 -1.152,-0.75 z m 0,-0.781 c 0.82,0 1.445,0.324 1.875,0.973 0.43,0.644 0.649,1.582 0.649,2.812 0,1.227 -0.219,2.164 -0.649,2.813 -0.43,0.644 -1.055,0.968 -1.875,0.968 -0.816,0 -1.437,-0.324 -1.871,-0.968 -0.43,-0.649 -0.645,-1.586 -0.645,-2.813 0,-1.23 0.215,-2.168 0.645,-2.812 0.434,-0.649 1.055,-0.973 1.871,-0.973 z"
         style="fill:#262626;fill-opacity:1;fill-rule:nonzero;stroke:none"
         id="path100" />
    </g>
    <g
       id="g102">
      <g
         id="g104"
         clip-path="url(#clipPath108)">
        <g
           id="g110">
          <g
             id="g112">
            <g
               id="g114"
               clip-path="url(#clipPath118)">
              <g
                 id="g120">
                <path
                   d="M 57.602,267.496 H 414.719"
                   style="fill:none;stroke:#ffffff;stroke-width:0.8;stroke-linecap:round;stroke-linejoin:round;stroke-miterlimit:4;stroke-dasharray:none;stroke-opacity:1"
                   id="path122" />
              </g>
            </g>
          </g>
        </g>
      </g>
    </g>
    <g
       id="g124">
      <path
         d="m 45.477,270.469 h 1.613 v -5.563 l -1.754,0.352 v -0.899 l 1.742,-0.351 h 0.988 v 6.461 h 1.61 v 0.828 h -4.199 z"
         style="fill:#262626;fill-opacity:1;fill-rule:nonzero;stroke:none"
         id="path126" />
    </g>
    <g
       id="g128">
      <g
         id="g130"
         clip-path="url(#clipPath134)">
        <g
           id="g136">
          <g
             id="g138">
            <g
               id="g140"
               clip-path="url(#clipPath144)">
              <g
                 id="g146">
                <path
                   d="M 57.602,227.41 H 414.719"
                   style="fill:none;stroke:#ffffff;stroke-width:0.8;stroke-linecap:round;stroke-linejoin:round;stroke-miterlimit:4;stroke-dasharray:none;stroke-opacity:1"
                   id="path148" />
              </g>
            </g>
          </g>
        </g>
      </g>
    </g>
    <g
       id="g150">
      <path
         d="m 46.156,230.379 h 3.442 v 0.832 h -4.629 v -0.832 c 0.375,-0.387 0.886,-0.906 1.531,-1.559 0.648,-0.652 1.055,-1.074 1.219,-1.261 0.316,-0.356 0.535,-0.657 0.66,-0.903 0.125,-0.246 0.191,-0.488 0.191,-0.722 0,-0.391 -0.136,-0.704 -0.41,-0.95 -0.269,-0.246 -0.625,-0.367 -1.062,-0.367 -0.309,0 -0.637,0.055 -0.981,0.16 -0.34,0.11 -0.707,0.274 -1.097,0.493 v -1 c 0.394,-0.157 0.765,-0.278 1.113,-0.36 0.344,-0.082 0.66,-0.121 0.945,-0.121 0.758,0 1.36,0.188 1.809,0.566 0.449,0.375 0.672,0.883 0.672,1.512 0,0.301 -0.055,0.586 -0.168,0.856 -0.114,0.265 -0.317,0.582 -0.614,0.945 -0.082,0.098 -0.339,0.367 -0.777,0.82 -0.434,0.45 -1.051,1.082 -1.844,1.891 z"
         style="fill:#262626;fill-opacity:1;fill-rule:nonzero;stroke:none"
         id="path152" />
    </g>
    <g
       id="g154">
      <g
         id="g156"
         clip-path="url(#clipPath160)">
        <g
           id="g162">
          <g
             id="g164">
            <g
               id="g166"
               clip-path="url(#clipPath170)">
              <g
                 id="g172">
                <path
                   d="M 57.602,187.324 H 414.719"
                   style="fill:none;stroke:#ffffff;stroke-width:0.8;stroke-linecap:round;stroke-linejoin:round;stroke-miterlimit:4;stroke-dasharray:none;stroke-opacity:1"
                   id="path174" />
              </g>
            </g>
          </g>
        </g>
      </g>
    </g>
    <g
       id="g176">
      <path
         d="m 48.297,187.191 c 0.469,0.102 0.84,0.313 1.101,0.633 0.266,0.317 0.399,0.711 0.399,1.18 0,0.719 -0.246,1.277 -0.742,1.672 -0.493,0.394 -1.196,0.59 -2.11,0.59 -0.304,0 -0.617,-0.032 -0.941,-0.09 -0.324,-0.063 -0.66,-0.153 -1.004,-0.274 v -0.949 c 0.273,0.156 0.57,0.277 0.898,0.359 0.325,0.083 0.664,0.122 1.02,0.122 0.617,0 1.09,-0.122 1.414,-0.364 0.324,-0.246 0.484,-0.601 0.484,-1.066 0,-0.43 -0.148,-0.766 -0.449,-1.008 -0.301,-0.242 -0.722,-0.363 -1.258,-0.363 h -0.851 v -0.813 h 0.89 c 0.485,0 0.856,-0.093 1.114,-0.289 0.258,-0.195 0.386,-0.472 0.386,-0.836 0,-0.375 -0.132,-0.664 -0.398,-0.863 -0.266,-0.199 -0.645,-0.301 -1.141,-0.301 -0.269,0 -0.562,0.031 -0.871,0.09 -0.308,0.059 -0.648,0.149 -1.019,0.27 v -0.875 c 0.375,-0.106 0.726,-0.184 1.054,-0.235 0.325,-0.054 0.633,-0.078 0.922,-0.078 0.75,0 1.344,0.168 1.778,0.508 0.437,0.34 0.656,0.801 0.656,1.379 0,0.406 -0.117,0.746 -0.348,1.023 -0.23,0.278 -0.558,0.473 -0.984,0.578 z"
         style="fill:#262626;fill-opacity:1;fill-rule:nonzero;stroke:none"
         id="path178" />
    </g>
    <g
       id="g180">
      <g
         id="g182"
         clip-path="url(#clipPath186)">
        <g
           id="g188">
          <g
             id="g190">
            <g
               id="g192"
               clip-path="url(#clipPath196)">
              <g
                 id="g198">
                <path
                   d="M 57.602,147.238 H 414.719"
                   style="fill:none;stroke:#ffffff;stroke-width:0.8;stroke-linecap:round;stroke-linejoin:round;stroke-miterlimit:4;stroke-dasharray:none;stroke-opacity:1"
                   id="path200" />
              </g>
            </g>
          </g>
        </g>
      </g>
    </g>
    <g
       id="g202">
      <path
         d="m 48.016,144.605 -2.489,3.891 h 2.489 z m -0.258,-0.859 H 49 v 4.75 h 1.039 v 0.82 H 49 v 1.719 h -0.984 v -1.719 h -3.289 v -0.949 z"
         style="fill:#262626;fill-opacity:1;fill-rule:nonzero;stroke:none"
         id="path204" />
    </g>
    <g
       id="g206">
      <g
         id="g208"
         clip-path="url(#clipPath212)">
        <g
           id="g214">
          <g
             id="g216">
            <g
               id="g218"
               clip-path="url(#clipPath222)">
              <g
                 id="g224">
                <path
                   d="M 57.602,107.152 H 414.719"
                   style="fill:none;stroke:#ffffff;stroke-width:0.8;stroke-linecap:round;stroke-linejoin:round;stroke-miterlimit:4;stroke-dasharray:none;stroke-opacity:1"
                   id="path226" />
              </g>
            </g>
          </g>
        </g>
      </g>
    </g>
    <g
       id="g228">
      <path
         d="m 45.316,103.66 h 3.872 v 0.832 h -2.969 v 1.785 c 0.144,-0.05 0.285,-0.086 0.429,-0.109 0.145,-0.023 0.29,-0.035 0.43,-0.035 0.817,0 1.461,0.222 1.934,0.668 0.476,0.445 0.715,1.047 0.715,1.808 0,0.786 -0.247,1.395 -0.735,1.832 -0.488,0.434 -1.176,0.653 -2.062,0.653 -0.309,0 -0.621,-0.028 -0.938,-0.078 -0.316,-0.055 -0.644,-0.133 -0.984,-0.235 v -0.992 c 0.293,0.156 0.597,0.277 0.91,0.356 0.312,0.078 0.641,0.117 0.988,0.117 0.567,0 1.012,-0.149 1.34,-0.446 0.328,-0.296 0.492,-0.695 0.492,-1.207 0,-0.504 -0.164,-0.906 -0.492,-1.203 -0.328,-0.297 -0.773,-0.445 -1.34,-0.445 -0.261,0 -0.523,0.027 -0.789,0.086 -0.262,0.058 -0.527,0.152 -0.801,0.273 z"
         style="fill:#262626;fill-opacity:1;fill-rule:nonzero;stroke:none"
         id="path230" />
    </g>
    <g
       id="g232">
      <g
         id="g234"
         clip-path="url(#clipPath238)">
        <g
           id="g240">
          <g
             id="g242">
            <g
               id="g244"
               clip-path="url(#clipPath248)">
              <g
                 id="g250">
                <path
                   d="M 57.602,67.062 H 414.719"
                   style="fill:none;stroke:#ffffff;stroke-width:0.8;stroke-linecap:round;stroke-linejoin:round;stroke-miterlimit:4;stroke-dasharray:none;stroke-opacity:1"
                   id="path252" />
              </g>
            </g>
          </g>
        </g>
      </g>
    </g>
    <g
       id="g254">
      <path
         d="m 47.539,66.824 c -0.441,0 -0.793,0.153 -1.055,0.457 -0.257,0.301 -0.386,0.715 -0.386,1.242 0,0.524 0.129,0.938 0.386,1.247 0.262,0.3 0.614,0.453 1.055,0.453 0.441,0 0.793,-0.153 1.051,-0.453 0.258,-0.309 0.387,-0.723 0.387,-1.247 0,-0.527 -0.129,-0.941 -0.387,-1.242 -0.258,-0.304 -0.61,-0.457 -1.051,-0.457 z m 1.957,-3.09 v 0.899 C 49.25,64.516 49,64.426 48.746,64.363 c -0.25,-0.062 -0.5,-0.093 -0.75,-0.093 -0.648,0 -1.148,0.222 -1.492,0.66 -0.344,0.441 -0.539,1.105 -0.586,1.992 0.191,-0.281 0.43,-0.5 0.723,-0.652 0.289,-0.149 0.609,-0.227 0.957,-0.227 0.73,0 1.308,0.223 1.734,0.668 0.426,0.445 0.637,1.047 0.637,1.812 0,0.75 -0.219,1.352 -0.664,1.805 -0.442,0.453 -1.032,0.676 -1.766,0.676 -0.844,0 -1.488,-0.32 -1.934,-0.969 -0.445,-0.644 -0.667,-1.582 -0.667,-2.808 0,-1.153 0.273,-2.071 0.82,-2.758 0.547,-0.684 1.277,-1.028 2.199,-1.028 0.25,0 0.5,0.024 0.75,0.075 0.254,0.046 0.516,0.121 0.789,0.218 z"
         style="fill:#262626;fill-opacity:1;fill-rule:nonzero;stroke:none"
         id="path256" />
      <path
         d="m 30.867,214.168 v -4.609 h 0.832 v 3.625 h 2.156 v -3.473 h 0.833 v 3.473 h 2.64 v -3.711 h 0.828 v 4.695 z"
         style="fill:#262626;fill-opacity:1;fill-rule:nonzero;stroke:none"
         id="path258" />
      <path
         d="m 30.559,206.992 h 7.598 v 0.898 h -7.598 z"
         style="fill:#262626;fill-opacity:1;fill-rule:nonzero;stroke:none"
         id="path260" />
      <path
         d="m 35.41,202.625 c 0,0.727 0.082,1.23 0.246,1.512 0.168,0.277 0.449,0.418 0.852,0.418 0.32,0 0.57,-0.106 0.758,-0.317 0.187,-0.207 0.281,-0.496 0.281,-0.855 0,-0.5 -0.176,-0.899 -0.531,-1.199 -0.352,-0.301 -0.821,-0.454 -1.407,-0.454 H 35.41 Z m -0.371,-1.793 h 3.117 v 0.898 h -0.828 c 0.332,0.208 0.574,0.461 0.734,0.77 0.161,0.305 0.239,0.68 0.239,1.121 0,0.563 -0.156,1.008 -0.473,1.336 -0.316,0.332 -0.734,0.496 -1.262,0.496 -0.617,0 -1.078,-0.203 -1.39,-0.617 -0.313,-0.41 -0.469,-1.027 -0.469,-1.844 v -1.262 h -0.09 c -0.414,0 -0.734,0.137 -0.961,0.411 -0.222,0.269 -0.336,0.652 -0.336,1.144 0,0.313 0.035,0.617 0.11,0.914 0.078,0.297 0.187,0.582 0.34,0.852 h -0.832 c -0.129,-0.328 -0.223,-0.645 -0.286,-0.953 -0.062,-0.313 -0.093,-0.614 -0.093,-0.907 0,-0.789 0.203,-1.382 0.613,-1.773 0.41,-0.391 1.031,-0.586 1.867,-0.586 z"
         style="fill:#262626;fill-opacity:1;fill-rule:nonzero;stroke:none"
         id="path262" />
      <path
         d="m 37.336,198.113 h 2.902 v 0.907 h -7.55 v -0.907 h 0.832 c -0.325,-0.187 -0.567,-0.425 -0.723,-0.715 -0.16,-0.289 -0.238,-0.632 -0.238,-1.031 0,-0.664 0.261,-1.203 0.789,-1.621 0.527,-0.414 1.222,-0.621 2.082,-0.621 0.859,0 1.55,0.207 2.078,0.621 0.527,0.418 0.793,0.957 0.793,1.621 0,0.399 -0.078,0.742 -0.239,1.031 -0.16,0.29 -0.398,0.528 -0.726,0.715 z m -1.906,-3.054 c -0.66,0 -1.18,0.132 -1.555,0.406 -0.379,0.273 -0.566,0.644 -0.566,1.121 0,0.476 0.187,0.848 0.566,1.121 0.375,0.273 0.895,0.406 1.555,0.406 0.66,0 1.175,-0.133 1.554,-0.406 0.375,-0.273 0.563,-0.645 0.563,-1.121 0,-0.477 -0.188,-0.848 -0.563,-1.121 -0.379,-0.274 -0.894,-0.406 -1.554,-0.406 z"
         style="fill:#262626;fill-opacity:1;fill-rule:nonzero;stroke:none"
         id="path264" />
      <path
         d="m 32.852,189.148 h 0.847 c -0.129,0.254 -0.226,0.52 -0.293,0.793 -0.062,0.274 -0.097,0.555 -0.097,0.848 0,0.449 0.07,0.781 0.207,1.004 0.136,0.223 0.339,0.336 0.613,0.336 0.211,0 0.371,-0.082 0.492,-0.238 0.117,-0.161 0.231,-0.481 0.34,-0.965 l 0.066,-0.309 c 0.137,-0.637 0.328,-1.09 0.578,-1.359 0.25,-0.266 0.598,-0.403 1.043,-0.403 0.508,0 0.911,0.204 1.207,0.606 0.297,0.402 0.446,0.953 0.446,1.656 0,0.293 -0.031,0.598 -0.086,0.914 -0.059,0.321 -0.145,0.653 -0.258,1.004 h -0.926 c 0.172,-0.332 0.301,-0.66 0.387,-0.98 0.086,-0.321 0.129,-0.641 0.129,-0.957 0,-0.422 -0.074,-0.75 -0.219,-0.977 -0.144,-0.226 -0.348,-0.34 -0.609,-0.34 -0.246,0 -0.434,0.082 -0.563,0.246 -0.129,0.164 -0.254,0.524 -0.375,1.082 l -0.074,0.313 c -0.117,0.555 -0.297,0.957 -0.539,1.203 -0.242,0.25 -0.578,0.371 -1,0.371 -0.516,0 -0.91,-0.18 -1.191,-0.547 -0.278,-0.363 -0.418,-0.883 -0.418,-1.551 0,-0.332 0.023,-0.644 0.074,-0.937 0.047,-0.293 0.121,-0.563 0.219,-0.813 z"
         style="fill:#262626;fill-opacity:1;fill-rule:nonzero;stroke:none"
         id="path266" />
      <path
         d="m 35.199,182.75 h 0.438 v 4.129 c 0.621,-0.039 1.09,-0.227 1.414,-0.559 0.324,-0.332 0.488,-0.797 0.488,-1.394 0,-0.344 -0.043,-0.68 -0.129,-1.004 -0.082,-0.324 -0.211,-0.645 -0.379,-0.965 h 0.848 c 0.137,0.324 0.242,0.652 0.312,0.992 0.075,0.34 0.11,0.684 0.11,1.031 0,0.872 -0.254,1.563 -0.762,2.075 -0.508,0.507 -1.195,0.761 -2.062,0.761 -0.895,0 -1.606,-0.242 -2.129,-0.722 -0.528,-0.485 -0.789,-1.137 -0.789,-1.957 0,-0.739 0.234,-1.317 0.711,-1.746 0.472,-0.43 1.117,-0.641 1.929,-0.641 z m -0.265,0.898 c -0.489,0.004 -0.883,0.141 -1.176,0.411 -0.293,0.269 -0.438,0.625 -0.438,1.066 0,0.504 0.141,0.902 0.422,1.203 0.285,0.301 0.684,0.477 1.199,0.524 z"
         style="fill:#262626;fill-opacity:1;fill-rule:nonzero;stroke:none"
         id="path268" />
      <path
         d="m 33.52,177.676 h -2.961 v -0.899 h 7.597 v 0.899 h -0.82 c 0.328,0.187 0.566,0.426 0.726,0.715 0.161,0.289 0.239,0.632 0.239,1.039 0,0.66 -0.266,1.199 -0.793,1.613 -0.528,0.414 -1.219,0.621 -2.078,0.621 -0.86,0 -1.555,-0.207 -2.082,-0.621 -0.528,-0.414 -0.789,-0.953 -0.789,-1.613 0,-0.407 0.078,-0.75 0.238,-1.039 0.156,-0.289 0.398,-0.528 0.723,-0.715 z m 1.91,3.062 c 0.66,0 1.175,-0.136 1.554,-0.41 0.375,-0.269 0.563,-0.644 0.563,-1.121 0,-0.473 -0.188,-0.848 -0.563,-1.121 -0.379,-0.274 -0.894,-0.41 -1.554,-0.41 -0.66,0 -1.18,0.136 -1.555,0.41 -0.379,0.273 -0.566,0.648 -0.566,1.121 0,0.477 0.187,0.852 0.566,1.121 0.375,0.274 0.895,0.41 1.555,0.41 z"
         style="fill:#262626;fill-opacity:1;fill-rule:nonzero;stroke:none"
         id="path270" />
      <path
         d="m 31.137,170.859 h 1.551 v -1.851 h 0.699 v 1.851 h 2.968 c 0.446,0 0.735,-0.062 0.86,-0.183 0.129,-0.121 0.191,-0.371 0.191,-0.746 v -0.922 h 0.75 v 0.922 c 0,0.695 -0.129,1.172 -0.386,1.437 -0.258,0.262 -0.731,0.395 -1.415,0.395 h -2.968 v 0.66 h -0.699 v -0.66 h -1.551 z"
         style="fill:#262626;fill-opacity:1;fill-rule:nonzero;stroke:none"
         id="path272" />
      <path
         d="m 32.688,167.828 v -0.898 h 5.468 v 0.898 z m -2.129,0 v -0.898 h 1.14 v 0.898 z"
         style="fill:#262626;fill-opacity:1;fill-rule:nonzero;stroke:none"
         id="path274" />
      <path
         d="m 33.738,160.789 c -0.402,-0.223 -0.703,-0.492 -0.894,-0.805 -0.192,-0.312 -0.285,-0.679 -0.285,-1.101 0,-0.571 0.199,-1.012 0.597,-1.321 0.399,-0.308 0.965,-0.464 1.699,-0.464 h 3.301 V 158 h -3.269 c -0.524,0 -0.914,0.094 -1.168,0.281 -0.254,0.184 -0.379,0.469 -0.379,0.848 0,0.465 0.152,0.836 0.465,1.105 0.308,0.27 0.726,0.407 1.261,0.407 h 3.09 v 0.902 h -3.269 c -0.528,0 -0.918,0.094 -1.168,0.277 -0.254,0.184 -0.379,0.473 -0.379,0.86 0,0.461 0.156,0.824 0.465,1.093 0.308,0.27 0.73,0.407 1.261,0.407 h 3.09 v 0.902 h -5.468 v -0.902 h 0.851 c -0.336,-0.207 -0.582,-0.45 -0.742,-0.739 -0.16,-0.285 -0.238,-0.625 -0.238,-1.019 0,-0.399 0.101,-0.734 0.3,-1.016 0.203,-0.277 0.496,-0.48 0.879,-0.617 z"
         style="fill:#262626;fill-opacity:1;fill-rule:nonzero;stroke:none"
         id="path276" />
      <path
         d="m 35.199,150.629 h 0.438 v 4.133 c 0.621,-0.043 1.09,-0.227 1.414,-0.563 0.324,-0.332 0.488,-0.797 0.488,-1.39 0,-0.348 -0.043,-0.68 -0.129,-1.004 -0.082,-0.325 -0.211,-0.649 -0.379,-0.965 h 0.848 c 0.137,0.32 0.242,0.652 0.312,0.992 0.075,0.336 0.11,0.68 0.11,1.027 0,0.875 -0.254,1.567 -0.762,2.075 -0.508,0.507 -1.195,0.765 -2.062,0.765 -0.895,0 -1.606,-0.242 -2.129,-0.726 -0.528,-0.485 -0.789,-1.137 -0.789,-1.957 0,-0.735 0.234,-1.317 0.711,-1.746 0.472,-0.426 1.117,-0.641 1.929,-0.641 z m -0.265,0.898 c -0.489,0.008 -0.883,0.145 -1.176,0.414 -0.293,0.266 -0.438,0.621 -0.438,1.067 0,0.5 0.141,0.902 0.422,1.203 0.285,0.301 0.684,0.473 1.199,0.519 z"
         style="fill:#262626;fill-opacity:1;fill-rule:nonzero;stroke:none"
         id="path278" />
      <path
         d="m 30.559,146.059 v -2.071 h 0.699 v 1.172 h 7.519 v -1.172 h 0.7 v 2.071 z"
         style="fill:#262626;fill-opacity:1;fill-rule:nonzero;stroke:none"
         id="path280" />
      <path
         d="m 32.852,138.59 h 0.847 c -0.129,0.254 -0.226,0.515 -0.293,0.789 -0.062,0.273 -0.097,0.559 -0.097,0.851 0,0.446 0.07,0.778 0.207,1.004 0.136,0.223 0.339,0.332 0.613,0.332 0.211,0 0.371,-0.078 0.492,-0.238 0.117,-0.16 0.231,-0.48 0.34,-0.961 l 0.066,-0.308 c 0.137,-0.637 0.328,-1.09 0.578,-1.36 0.25,-0.269 0.598,-0.402 1.043,-0.402 0.508,0 0.911,0.199 1.207,0.601 0.297,0.403 0.446,0.954 0.446,1.657 0,0.293 -0.031,0.597 -0.086,0.918 -0.059,0.316 -0.145,0.652 -0.258,1.004 h -0.926 c 0.172,-0.336 0.301,-0.661 0.387,-0.985 0.086,-0.32 0.129,-0.64 0.129,-0.957 0,-0.422 -0.074,-0.746 -0.219,-0.973 -0.144,-0.23 -0.348,-0.343 -0.609,-0.343 -0.246,0 -0.434,0.082 -0.563,0.246 -0.129,0.164 -0.254,0.523 -0.375,1.082 l -0.074,0.312 c -0.117,0.555 -0.297,0.957 -0.539,1.207 -0.242,0.246 -0.578,0.372 -1,0.372 -0.516,0 -0.91,-0.184 -1.191,-0.547 -0.278,-0.368 -0.418,-0.883 -0.418,-1.555 0,-0.332 0.023,-0.645 0.074,-0.938 0.047,-0.293 0.121,-0.562 0.219,-0.808 z"
         style="fill:#262626;fill-opacity:1;fill-rule:nonzero;stroke:none"
         id="path282" />
      <path
         d="m 30.559,134.766 h 8.918 v 2.07 h -0.7 v -1.168 h -7.519 v 1.168 h -0.699 z"
         style="fill:#262626;fill-opacity:1;fill-rule:nonzero;stroke:none"
         id="path284" />
    </g>
    <g
       id="g286">
      <g
         id="g288"
         clip-path="url(#clipPath292)">
        <g
           id="g294">
          <g
             id="g296">
            <g
               id="g298"
               clip-path="url(#clipPath302)">
              <g
                 id="g304">
                <path
                   d="M 75.457,204.59 H 218.305 V 307.586 H 75.457 Z"
                   style="fill:#5875a4;fill-opacity:1;fill-rule:nonzero;stroke:#ffffff;stroke-width:1;stroke-linecap:butt;stroke-linejoin:miter;stroke-miterlimit:4;stroke-dasharray:none;stroke-opacity:1"
                   id="path306" />
              </g>
            </g>
          </g>
        </g>
        <g
           id="g308">
          <g
             id="g310">
            <g
               id="g312"
               clip-path="url(#clipPath316)">
              <g
                 id="g318">
                <path
                   d="M 254.016,124.527 H 396.864 V 307.586 H 254.016 Z"
                   style="fill:#cc8963;fill-opacity:1;fill-rule:nonzero;stroke:#ffffff;stroke-width:1;stroke-linecap:butt;stroke-linejoin:miter;stroke-miterlimit:4;stroke-dasharray:none;stroke-opacity:1"
                   id="path320" />
              </g>
            </g>
          </g>
        </g>
        <g
           id="g322">
          <g
             id="g324">
            <g
               id="g326"
               clip-path="url(#clipPath330)">
              <g
                 id="g332">
                <path
                   d="M 146.879,241.582 V 167.598"
                   style="fill:none;stroke:#000000;stroke-width:1.5;stroke-linecap:butt;stroke-linejoin:round;stroke-miterlimit:4;stroke-dasharray:none;stroke-opacity:1"
                   id="path334" />
              </g>
            </g>
          </g>
        </g>
        <g
           id="g336">
          <g
             id="g338">
            <g
               id="g340"
               clip-path="url(#clipPath344)">
              <g
                 id="g346">
                <path
                   d="M 325.441,194.91 V 54.145"
                   style="fill:none;stroke:#000000;stroke-width:1.5;stroke-linecap:butt;stroke-linejoin:round;stroke-miterlimit:4;stroke-dasharray:none;stroke-opacity:1"
                   id="path348" />
              </g>
            </g>
          </g>
        </g>
      </g>
    </g>
    <g
       id="g350">
      <path
         d="M 57.602,307.586 V 41.473"
         style="fill:none;stroke:#ffffff;stroke-width:0.8;stroke-linecap:square;stroke-linejoin:miter;stroke-miterlimit:4;stroke-dasharray:none;stroke-opacity:1"
         id="path352" />
      <path
         d="M 414.719,307.586 V 41.473"
         style="fill:none;stroke:#ffffff;stroke-width:0.8;stroke-linecap:square;stroke-linejoin:miter;stroke-miterlimit:4;stroke-dasharray:none;stroke-opacity:1"
         id="path354" />
      <path
         d="M 57.602,307.586 H 414.719"
         style="fill:none;stroke:#ffffff;stroke-width:0.8;stroke-linecap:square;stroke-linejoin:miter;stroke-miterlimit:4;stroke-dasharray:none;stroke-opacity:1"
         id="path356" />
      <path
         d="M 57.602,41.473 H 414.719"
         style="fill:none;stroke:#ffffff;stroke-width:0.8;stroke-linecap:square;stroke-linejoin:miter;stroke-miterlimit:4;stroke-dasharray:none;stroke-opacity:1"
         id="path358" />
    </g>
  </g>
</svg>
